<?xml version="1.0" encoding="UTF-8"?>
<svg id="Layer_1" data-name="Layer 1" xmlns="http://www.w3.org/2000/svg" viewBox="0 0 327.34 110.76">
  <defs>
    <style>
      .cls-1 {
        fill: #1e3c64;
      }

      .cls-2 {
        fill: #2b67b2;
      }

      .cls-3 {
        fill: #f7941d;
      }
    </style>
  </defs>
  <g>
    <path class="cls-3" d="M223.07,86.63c-.56.27-.78.94-.51,1.5.28.55.95.78,1.5.51.56-.27.78-.94.51-1.5-.27-.55-.94-.78-1.5-.51Z"/>
    <path class="cls-3" d="M230.88,94.82c-.55.27-.78.94-.51,1.5.27.55.94.78,1.5.51.55-.27.78-.94.51-1.5-.27-.55-.94-.78-1.5-.51Z"/>
    <path class="cls-3" d="M243.29,102.93c-.55.27-.78.94-.51,1.5.27.55.94.78,1.5.51.55-.27.78-.94.51-1.5-.27-.55-.94-.78-1.5-.51Z"/>
    <path class="cls-3" d="M257.08,107.64c-.55.27-.78.94-.51,1.5.27.55.94.78,1.5.51.55-.27.78-.94.51-1.5-.27-.55-.94-.78-1.5-.51Z"/>
    <path class="cls-3" d="M271.45,108.63c-.55.27-.78.94-.51,1.5.27.55.94.78,1.5.51.55-.27.78-.94.51-1.5-.27-.55-.94-.78-1.5-.51Z"/>
    <path class="cls-3" d="M282.64,106.87c-.55.27-.78.94-.51,1.5.27.56.94.78,1.5.51.55-.27.78-.94.51-1.5-.27-.55-.94-.78-1.5-.51Z"/>
    <path class="cls-3" d="M293.7,102.78c-.56.28-.78.94-.51,1.5.27.55.94.78,1.5.51.55-.27.78-.94.51-1.5-.27-.55-.94-.78-1.5-.51Z"/>
    <path class="cls-3" d="M229.21,83.93c-.94.46-1.32,1.59-.86,2.52.46.93,1.59,1.32,2.52.86.93-.46,1.32-1.59.86-2.52-.46-.93-1.59-1.32-2.52-.86Z"/>
    <path class="cls-3" d="M237.74,79.77c-1.5.73-2.11,2.54-1.37,4.04.74,1.49,2.54,2.11,4.04,1.37,1.5-.74,2.11-2.54,1.37-4.04-.74-1.49-2.54-2.11-4.04-1.37Z"/>
    <path class="cls-3" d="M248.47,75.34c-1.61.79-2.27,2.73-1.48,4.34.79,1.61,2.74,2.27,4.35,1.48,1.61-.79,2.27-2.74,1.48-4.34-.79-1.61-2.74-2.27-4.34-1.48Z"/>
    <path class="cls-3" d="M260.1,69.91c-1.81.89-2.55,3.08-1.66,4.88.89,1.81,3.08,2.55,4.88,1.66,1.81-.89,2.55-3.08,1.66-4.88-.89-1.81-3.08-2.55-4.88-1.66Z"/>
    <path class="cls-3" d="M273.75,62.26c-2.1,1.03-2.96,3.57-1.93,5.67,1.03,2.1,3.57,2.96,5.67,1.93,2.1-1.03,2.96-3.57,1.93-5.67-1.03-2.1-3.57-2.96-5.67-1.93Z"/>
    <path class="cls-3" d="M280.07,75.09c-1.71.84-2.42,2.91-1.57,4.63.84,1.71,2.92,2.42,4.63,1.57,1.71-.84,2.42-2.91,1.57-4.63-.84-1.71-2.92-2.42-4.63-1.58Z"/>
    <path class="cls-3" d="M266.56,81.54c-1.58.78-2.23,2.69-1.45,4.27.78,1.58,2.69,2.23,4.27,1.45,1.58-.78,2.23-2.69,1.45-4.27-.78-1.58-2.69-2.23-4.27-1.45Z"/>
    <path class="cls-3" d="M255.09,86.27c-1.44.71-2.03,2.45-1.32,3.89.71,1.44,2.45,2.03,3.89,1.32,1.44-.71,2.03-2.45,1.32-3.89-.71-1.44-2.45-2.03-3.89-1.32Z"/>
    <path class="cls-3" d="M244.2,90.36c-1.16.57-1.63,1.97-1.07,3.13.57,1.16,1.97,1.64,3.13,1.06,1.16-.57,1.63-1.97,1.07-3.13-.57-1.16-1.97-1.64-3.13-1.07Z"/>
    <path class="cls-3" d="M236.88,93.22c-.72.35-1.01,1.22-.66,1.93.35.72,1.22,1.01,1.93.66.72-.35,1.01-1.22.66-1.93-.35-.72-1.22-1.01-1.93-.66Z"/>
    <path class="cls-3" d="M285.45,86.03c-1.41.69-1.98,2.39-1.29,3.8.69,1.41,2.39,1.98,3.8,1.29,1.41-.69,1.98-2.39,1.29-3.8-.69-1.41-2.39-1.98-3.8-1.29Z"/>
    <path class="cls-3" d="M272.73,91.76c-1.41.69-1.98,2.39-1.29,3.8.69,1.41,2.39,1.98,3.8,1.29,1.41-.69,1.98-2.39,1.29-3.8-.69-1.41-2.39-1.98-3.8-1.29Z"/>
    <path class="cls-3" d="M262.05,96.53c-1.07.53-1.51,1.82-.98,2.89.53,1.07,1.82,1.51,2.89.98,1.07-.53,1.51-1.82.98-2.89-.53-1.07-1.82-1.51-2.89-.98Z"/>
    <path class="cls-3" d="M251.11,100.33c-.89.44-1.26,1.52-.82,2.41.44.89,1.52,1.26,2.41.82.89-.44,1.26-1.52.82-2.41-.44-.89-1.52-1.26-2.41-.82Z"/>
    <path class="cls-3" d="M290.18,95.62c-1.03.51-1.45,1.75-.95,2.78.51,1.03,1.75,1.45,2.78.95,1.03-.51,1.45-1.75.95-2.78-.51-1.03-1.75-1.45-2.78-.95Z"/>
    <path class="cls-3" d="M278.33,100.51c-1.03.51-1.45,1.75-.95,2.78.51,1.03,1.75,1.45,2.79.95,1.03-.51,1.45-1.75.95-2.79-.51-1.03-1.75-1.45-2.78-.95Z"/>
    <path class="cls-3" d="M266.98,103.41c-.81.4-1.14,1.37-.74,2.18.4.81,1.38,1.14,2.18.74.81-.4,1.14-1.37.74-2.18-.4-.81-1.37-1.14-2.18-.74Z"/>
    <path class="cls-3" d="M324,36.95c.55-.27,1.22-.05,1.5.51.27.56.05,1.23-.51,1.5-.55.27-1.22.04-1.5-.51-.27-.55-.04-1.22.51-1.5Z"/>
    <path class="cls-3" d="M325.73,48.14c.55-.27,1.23-.04,1.5.51.27.56.04,1.22-.51,1.5-.55.27-1.22.04-1.5-.51-.27-.55-.04-1.23.51-1.5Z"/>
    <path class="cls-3" d="M324.58,62.92c.55-.27,1.23-.04,1.5.51.27.55.04,1.23-.51,1.5-.55.27-1.23.04-1.5-.51-.27-.55-.04-1.22.51-1.5Z"/>
    <path class="cls-3" d="M319.91,76.72c.55-.27,1.22-.04,1.5.51.27.55.04,1.22-.51,1.5-.56.27-1.22.04-1.5-.51-.27-.55-.05-1.22.51-1.5Z"/>
    <path class="cls-3" d="M313.24,88.67c.55-.27,1.23-.05,1.5.51.27.56.04,1.23-.51,1.5-.56.27-1.23.04-1.5-.51-.27-.55-.04-1.22.51-1.5Z"/>
    <path class="cls-3" d="M304.81,96.51c.55-.27,1.22-.04,1.5.51.27.56.05,1.23-.51,1.5-.56.27-1.22.04-1.5-.51-.27-.56-.05-1.23.51-1.5Z"/>
    <path class="cls-3" d="M318.12,40.17c.93-.46,2.06-.08,2.52.86.46.93.07,2.06-.86,2.52-.94.46-2.06.07-2.52-.86-.46-.93-.08-2.06.86-2.52Z"/>
    <path class="cls-3" d="M309.62,44.4c1.5-.74,3.3-.12,4.04,1.38.74,1.49.12,3.3-1.37,4.04-1.49.74-3.3.12-4.04-1.37-.74-1.49-.12-3.3,1.37-4.04Z"/>
    <path class="cls-3" d="M299.56,50.19c1.61-.79,3.55-.13,4.34,1.48.79,1.61.13,3.55-1.48,4.34-1.61.79-3.55.13-4.34-1.48-.79-1.61-.13-3.55,1.48-4.34Z"/>
    <path class="cls-3" d="M288.16,56.1c1.81-.89,3.99-.15,4.88,1.66.89,1.81.14,3.99-1.66,4.88-1.81.89-3.99.15-4.88-1.66-.89-1.81-.15-3.99,1.66-4.88Z"/>
    <path class="cls-3" d="M293.44,68.31c1.58-.78,3.5-.13,4.27,1.45.78,1.58.13,3.5-1.46,4.28-1.58.78-3.49.13-4.27-1.46-.78-1.58-.13-3.5,1.46-4.27Z"/>
    <path class="cls-3" d="M304.19,62.1c1.44-.71,3.18-.12,3.89,1.32.71,1.44.11,3.18-1.32,3.89-1.44.71-3.18.11-3.89-1.32-.71-1.44-.12-3.18,1.32-3.89Z"/>
    <path class="cls-3" d="M314.07,55.98c1.16-.57,2.56-.09,3.13,1.07.57,1.16.09,2.56-1.06,3.13-1.16.57-2.56.09-3.13-1.07-.57-1.16-.09-2.56,1.07-3.13Z"/>
    <path class="cls-3" d="M320.79,51.92c.72-.35,1.58-.06,1.93.66.35.71.06,1.58-.66,1.93-.71.35-1.58.06-1.93-.66-.35-.72-.06-1.58.66-1.93Z"/>
    <path class="cls-3" d="M297.78,79.44c1.4-.69,3.11-.11,3.8,1.29.69,1.41.11,3.11-1.29,3.8-1.41.69-3.11.11-3.8-1.29-.69-1.41-.11-3.11,1.3-3.8Z"/>
    <path class="cls-3" d="M308.06,73.89c1.07-.53,2.37-.09,2.89.98.53,1.07.09,2.36-.98,2.89-1.07.53-2.36.09-2.89-.98-.53-1.07-.09-2.36.98-2.89Z"/>
    <path class="cls-3" d="M317.75,67.53c.89-.44,1.97-.07,2.41.82.44.89.07,1.97-.82,2.41-.89.44-1.97.07-2.41-.82-.44-.89-.07-1.97.82-2.41Z"/>
    <path class="cls-3" d="M301.29,89.21c1.03-.51,2.28-.08,2.78.95.51,1.03.08,2.28-.95,2.78-1.03.51-2.28.08-2.78-.95-.51-1.03-.08-2.28.95-2.78Z"/>
    <path class="cls-3" d="M310.51,81.99c.81-.4,1.79-.06,2.18.74.4.81.06,1.79-.74,2.18-.81.4-1.79.06-2.18-.74-.4-.81-.06-1.79.74-2.18Z"/>
  </g>
  <g>
    <path class="cls-2" d="M217.43,73.8c-.56.27-1.22.04-1.5-.51-.27-.55-.04-1.22.51-1.5.55-.27,1.22-.04,1.5.51.27.55.04,1.22-.51,1.5Z"/>
    <path class="cls-2" d="M215.7,62.62c-.56.27-1.23.04-1.5-.51-.27-.56-.04-1.23.51-1.5.55-.27,1.22-.05,1.5.51.27.55.05,1.22-.51,1.5Z"/>
    <path class="cls-2" d="M216.85,47.84c-.55.27-1.22.04-1.5-.51-.27-.55-.04-1.22.51-1.5.55-.27,1.22-.04,1.5.51.27.55.04,1.23-.51,1.5Z"/>
    <path class="cls-2" d="M221.52,34.04c-.55.27-1.22.04-1.5-.51-.27-.55-.05-1.23.51-1.5.56-.27,1.22-.04,1.5.51.27.55.04,1.22-.51,1.5Z"/>
    <path class="cls-2" d="M229.51,22.04c-.55.27-1.22.04-1.5-.51-.27-.55-.04-1.22.51-1.5.56-.27,1.23-.04,1.5.51.27.56.05,1.23-.51,1.5Z"/>
    <path class="cls-2" d="M237.72,14.25c-.55.27-1.22.04-1.5-.51-.27-.55-.05-1.22.51-1.5.56-.27,1.22-.04,1.5.51.28.55.05,1.22-.51,1.5Z"/>
    <path class="cls-2" d="M247.72,7.98c-.55.27-1.23.05-1.5-.51-.27-.55-.04-1.22.51-1.5.56-.27,1.23-.05,1.5.51.27.55.04,1.22-.51,1.5Z"/>
    <path class="cls-2" d="M223.31,70.58c-.93.46-2.06.08-2.52-.86-.46-.93-.07-2.06.86-2.52.93-.46,2.06-.08,2.52.86.46.93.08,2.06-.86,2.52Z"/>
    <path class="cls-2" d="M231.81,66.36c-1.49.74-3.3.12-4.04-1.37-.74-1.5-.12-3.3,1.37-4.04,1.49-.74,3.3-.12,4.04,1.37.74,1.49.12,3.3-1.37,4.04Z"/>
    <path class="cls-2" d="M241.87,60.56c-1.61.79-3.55.13-4.34-1.48-.79-1.61-.13-3.55,1.48-4.34,1.61-.79,3.55-.13,4.34,1.48.79,1.61.13,3.55-1.48,4.34Z"/>
    <path class="cls-2" d="M253.27,54.66c-1.81.89-3.99.15-4.88-1.66-.89-1.81-.14-3.99,1.66-4.88,1.81-.89,3.99-.15,4.88,1.66.89,1.81.14,4-1.66,4.88Z"/>
    <path class="cls-2" d="M267.65,48.51c-2.1,1.03-4.64.17-5.67-1.93-1.03-2.1-.17-4.63,1.93-5.67,2.1-1.03,4.64-.17,5.67,1.93,1.03,2.1.17,4.63-1.93,5.67Z"/>
    <path class="cls-2" d="M261.34,35.68c-1.71.84-3.78.14-4.63-1.58-.84-1.71-.14-3.78,1.57-4.63,1.71-.84,3.78-.14,4.63,1.57.84,1.71.14,3.79-1.57,4.63Z"/>
    <path class="cls-2" d="M247.99,42.44c-1.58.78-3.5.13-4.28-1.45-.78-1.58-.13-3.5,1.46-4.27,1.58-.78,3.5-.13,4.27,1.45.78,1.58.13,3.5-1.45,4.27Z"/>
    <path class="cls-2" d="M237.24,48.65c-1.44.71-3.18.12-3.89-1.32-.71-1.44-.12-3.18,1.32-3.89,1.44-.71,3.18-.11,3.89,1.32.71,1.44.12,3.18-1.32,3.89Z"/>
    <path class="cls-2" d="M227.35,54.78c-1.16.57-2.56.09-3.13-1.07-.57-1.16-.1-2.56,1.06-3.13,1.16-.57,2.56-.09,3.13,1.06.57,1.16.09,2.56-1.07,3.13Z"/>
    <path class="cls-2" d="M220.64,58.84c-.72.35-1.58.06-1.94-.66-.35-.71-.06-1.58.66-1.93.71-.35,1.58-.06,1.93.66.35.72.06,1.58-.66,1.93Z"/>
    <path class="cls-2" d="M255.96,24.74c-1.41.69-3.11.11-3.8-1.29-.69-1.41-.12-3.11,1.29-3.8,1.41-.69,3.11-.11,3.8,1.29.69,1.41.11,3.11-1.29,3.8Z"/>
    <path class="cls-2" d="M243.65,31.32c-1.41.69-3.11.11-3.8-1.29-.69-1.41-.11-3.11,1.29-3.8,1.4-.69,3.11-.11,3.8,1.29.69,1.41.12,3.11-1.29,3.8Z"/>
    <path class="cls-2" d="M233.36,36.87c-1.07.53-2.37.09-2.89-.98-.53-1.07-.09-2.36.98-2.89,1.07-.53,2.36-.09,2.89.98.53,1.07.09,2.36-.98,2.89Z"/>
    <path class="cls-2" d="M223.68,43.23c-.89.44-1.97.07-2.41-.82-.44-.89-.07-1.97.82-2.41.89-.44,1.97-.07,2.41.82.44.89.07,1.97-.82,2.41Z"/>
    <path class="cls-2" d="M251.24,15.14c-1.03.51-2.28.08-2.78-.95-.51-1.03-.08-2.28.95-2.78,1.03-.51,2.28-.08,2.78.95.51,1.03.08,2.28-.95,2.78Z"/>
    <path class="cls-2" d="M240.14,21.55c-1.03.51-2.28.08-2.79-.95-.51-1.03-.08-2.28.95-2.78,1.03-.51,2.28-.08,2.78.95.51,1.03.08,2.28-.95,2.78Z"/>
    <path class="cls-2" d="M230.92,28.77c-.81.4-1.79.07-2.18-.74-.4-.81-.07-1.78.74-2.18.81-.4,1.79-.06,2.18.74.4.81.06,1.78-.74,2.18Z"/>
    <path class="cls-2" d="M318.36,24.13c.55-.27.78-.94.51-1.5-.27-.56-.94-.78-1.5-.51-.56.27-.78.94-.51,1.5.27.55.94.78,1.5.51Z"/>
    <path class="cls-2" d="M310.55,15.94c.55-.27.78-.94.51-1.5-.27-.56-.94-.78-1.5-.51-.55.27-.78.94-.51,1.5.27.55.94.78,1.5.51Z"/>
    <path class="cls-2" d="M298.14,7.83c.55-.27.78-.94.51-1.5-.27-.56-.94-.78-1.5-.51-.55.27-.78.94-.51,1.5.27.55.94.78,1.5.51Z"/>
    <path class="cls-2" d="M284.35,3.11c.56-.27.78-.94.51-1.5-.27-.55-.94-.78-1.5-.51-.55.27-.78.94-.51,1.5.27.55.94.78,1.5.51Z"/>
    <path class="cls-2" d="M269.98,2.12c.55-.27.78-.94.51-1.5-.27-.55-.94-.78-1.5-.51-.55.27-.78.94-.51,1.5.27.55.94.78,1.5.51Z"/>
    <path class="cls-2" d="M258.79,3.88c.55-.27.78-.94.51-1.5-.27-.55-.94-.78-1.5-.51-.55.27-.78.94-.51,1.5.27.55.94.78,1.5.51Z"/>
    <path class="cls-2" d="M312.22,26.82c.94-.46,1.32-1.59.86-2.52-.46-.93-1.59-1.32-2.52-.86-.93.46-1.32,1.59-.86,2.52.46.93,1.59,1.32,2.52.86Z"/>
    <path class="cls-2" d="M303.69,30.98c1.49-.74,2.11-2.54,1.37-4.04-.74-1.5-2.54-2.11-4.04-1.37-1.5.74-2.11,2.54-1.37,4.04.74,1.5,2.54,2.11,4.04,1.38Z"/>
    <path class="cls-2" d="M292.96,35.42c1.61-.79,2.27-2.74,1.48-4.34-.79-1.61-2.74-2.27-4.34-1.48-1.61.79-2.27,2.74-1.48,4.34.79,1.61,2.74,2.27,4.34,1.48Z"/>
    <path class="cls-2" d="M281.32,40.85c1.81-.89,2.55-3.08,1.66-4.88-.89-1.81-3.08-2.55-4.88-1.66-1.81.89-2.55,3.08-1.66,4.88.89,1.81,3.08,2.55,4.88,1.66Z"/>
    <path class="cls-2" d="M274.87,29.22c1.58-.78,2.23-2.69,1.45-4.27-.78-1.58-2.69-2.23-4.27-1.45-1.58.78-2.23,2.69-1.45,4.27.78,1.58,2.69,2.23,4.27,1.45Z"/>
    <path class="cls-2" d="M286.34,24.49c1.44-.71,2.03-2.45,1.33-3.89-.71-1.44-2.45-2.03-3.89-1.32-1.44.71-2.03,2.45-1.32,3.89.71,1.44,2.45,2.03,3.89,1.32Z"/>
    <path class="cls-2" d="M297.23,20.39c1.16-.57,1.63-1.97,1.07-3.13-.57-1.16-1.97-1.63-3.13-1.06-1.16.57-1.63,1.97-1.07,3.13.57,1.16,1.97,1.63,3.13,1.07Z"/>
    <path class="cls-2" d="M304.54,17.54c.71-.35,1.01-1.22.66-1.93-.35-.71-1.22-1.01-1.93-.66-.72.35-1.01,1.22-.66,1.93.35.71,1.22,1.01,1.93.66Z"/>
    <path class="cls-2" d="M268.7,18.99c1.41-.69,1.99-2.39,1.29-3.8-.69-1.41-2.39-1.99-3.8-1.29-1.41.69-1.98,2.39-1.29,3.8.69,1.41,2.39,1.98,3.8,1.29Z"/>
    <path class="cls-2" d="M279.38,14.23c1.07-.53,1.51-1.82.98-2.89-.53-1.07-1.82-1.51-2.89-.98-1.07.53-1.51,1.82-.98,2.89.53,1.07,1.82,1.51,2.89.98Z"/>
    <path class="cls-2" d="M290.32,10.43c.89-.44,1.26-1.52.82-2.41-.44-.89-1.52-1.26-2.41-.82-.89.44-1.26,1.52-.82,2.41.44.89,1.52,1.26,2.41.82Z"/>
    <path class="cls-2" d="M263.1,10.25c1.03-.51,1.45-1.75.95-2.78-.51-1.03-1.76-1.45-2.78-.95-1.03.51-1.45,1.75-.95,2.78.51,1.03,1.75,1.45,2.79.95Z"/>
    <path class="cls-2" d="M274.45,7.34c.81-.4,1.14-1.37.74-2.18-.4-.81-1.37-1.14-2.18-.74-.81.4-1.14,1.37-.74,2.18.4.81,1.37,1.14,2.18.74Z"/>
  </g>
  <g>
    <path class="cls-1" d="M0,24.06h8.5c.87,0,1.6.21,2.19.63.59.42.99.99,1.19,1.71l11.71,40.04c.23.87.44,1.8.63,2.8.19,1,.38,2.05.59,3.14.23-1.1.47-2.15.72-3.17.25-1.01.51-1.94.8-2.78l13.4-40.04c.2-.58.61-1.11,1.21-1.6.61-.49,1.33-.74,2.17-.74h2.95c.9,0,1.62.22,2.17.67.55.45.97,1.01,1.26,1.67l13.36,40.04c.29.84.55,1.74.78,2.71.23.97.46,2,.69,3.1.2-1.07.4-2.1.59-3.08.19-.98.4-1.89.63-2.73l11.67-40.04c.17-.64.57-1.19,1.19-1.65.62-.46,1.35-.69,2.19-.69h7.94l-19.43,62.46h-9.15l-14.66-44.85c-.17-.49-.34-1.03-.5-1.61-.16-.58-.31-1.2-.46-1.87-.14.67-.3,1.29-.48,1.87-.17.58-.33,1.11-.48,1.61l-14.79,44.85h-9.15L0,24.06Z"/>
    <path class="cls-1" d="M96.95,86.53V24.06h20.78c3.99,0,7.4.38,10.24,1.15,2.83.77,5.16,1.86,6.98,3.27,1.82,1.42,3.16,3.15,4.01,5.18.85,2.04,1.28,4.33,1.28,6.88,0,1.47-.22,2.91-.67,4.29-.45,1.39-1.14,2.68-2.08,3.86-.94,1.19-2.12,2.26-3.54,3.23-1.42.97-3.09,1.77-5.03,2.41,4.42.93,7.74,2.56,9.96,4.9,2.21,2.34,3.32,5.39,3.32,9.15,0,2.66-.5,5.1-1.5,7.31-1,2.21-2.44,4.12-4.34,5.73-1.89,1.61-4.23,2.86-7.01,3.75-2.78.9-5.94,1.34-9.5,1.34h-22.9ZM107.1,51.52h10.15c4.34,0,7.58-.84,9.72-2.52,2.14-1.68,3.21-4.09,3.21-7.24,0-3.44-1.01-5.93-3.01-7.46-2.01-1.53-5.16-2.3-9.43-2.3h-10.63v19.52ZM107.1,58.68v19.82h12.58c2.28,0,4.21-.27,5.79-.8,1.58-.53,2.86-1.26,3.86-2.19,1-.93,1.72-2.02,2.17-3.27.45-1.26.67-2.61.67-4.06,0-2.95-1.01-5.27-3.01-6.96-2.01-1.69-5.18-2.54-9.52-2.54h-12.54Z"/>
    <path class="cls-1" d="M163.75,61.37v25.16h-10.15V24.06h18.39c4.11,0,7.64.42,10.61,1.26,2.96.84,5.4,2.03,7.31,3.58,1.91,1.55,3.32,3.41,4.23,5.57.91,2.17,1.37,4.58,1.37,7.24,0,2.17-.33,4.19-.98,6.07-.65,1.88-1.59,3.59-2.82,5.12-1.23,1.53-2.75,2.86-4.55,3.99-1.81,1.13-3.85,2.01-6.14,2.65,1.27.75,2.36,1.81,3.25,3.17l16.87,23.81h-9.07c-1.79,0-3.09-.69-3.9-2.08l-14.58-21.04c-.49-.72-1.03-1.24-1.6-1.56-.58-.32-1.45-.48-2.6-.48h-5.64ZM163.75,54h7.98c2.31,0,4.34-.28,6.07-.85,1.73-.56,3.18-1.35,4.34-2.36,1.16-1.01,2.02-2.22,2.6-3.62.58-1.4.87-2.96.87-4.66,0-3.41-1.13-6.01-3.38-7.81-2.26-1.79-5.67-2.69-10.24-2.69h-8.24v21.99Z"/>
  </g>
</svg>